ISO-10303-21;
HEADER;
FILE_DESCRIPTION(('CATIA V5 STEP Exchange','CAx-IF Rec.Pracs.--- Model Styling and Organization---1.5--- 2016-08-15','CAx-IF Rec.Pracs.---Supplemental Geometry---1.0---2011-11-01','CAx-IF Rec.Pracs.--- Composite Materials ---3.4---2017-06-13','CAx-IF Rec.Pracs.---Tessellated 3D Geometry---1.0---2015-12-17'),'2;1');

FILE_NAME('C:\\Users\\yvan.blanchard\\OneDrive - iCOMAT\\Documents\\Part_AFP_Gap_FEA.stp','2026-05-25T08:25:40+00:00',('none'),('none'),'CATIA Version 5-6 Release 2025 SP2','CATIA V5 STEP AP242 v3','none');

FILE_SCHEMA(('AP242_MANAGED_MODEL_BASED_3D_ENGINEERING_MIM_LF  {1 0 10303 442 1 1 4}'));

ENDSEC;
DATA;
#5=PRODUCT('Part1','','',(#2)) ;
#2=PRODUCT_CONTEXT(' ',#1,'mechanical') ;
#1=APPLICATION_CONTEXT('managed model based 3d engineering') ;
#10=PRODUCT_DEFINITION('',' ',#6,#3) ;
#3=PRODUCT_DEFINITION_CONTEXT('part definition',#1,' ') ;
#11=PRODUCT_DEFINITION_SHAPE(' ',' ',#10) ;
#658=MECHANICAL_DESIGN_GEOMETRIC_PRESENTATION_REPRESENTATION(' ',(#30),#16) ;
#7=PRODUCT_CATEGORY('part','specification') ;
#19=SHAPE_REPRESENTATION(' ',(#18),#16) ;
#17=CARTESIAN_POINT(' ',(0.,0.,0.)) ;
#31=CARTESIAN_POINT('Axis2P3D Location',(0.,0.,0.)) ;
#36=CARTESIAN_POINT('Line Origine',(150.,-0.544276993405,0.)) ;
#40=CARTESIAN_POINT('Vertex',(150.,-1.08855398681,0.)) ;
#42=CARTESIAN_POINT('Vertex',(150.,-1.42108547152E-14,0.)) ;
#45=CARTESIAN_POINT('Line Origine',(142.741110514,0.,0.)) ;
#49=CARTESIAN_POINT('Vertex',(135.482221007,0.,0.)) ;
#52=CARTESIAN_POINT('Line Origine',(141.653098053,-2.87752722384,0.)) ;
#56=CARTESIAN_POINT('Vertex',(147.823975098,-5.75505444768,0.)) ;
#59=CARTESIAN_POINT('Line Origine',(148.911987549,-3.42180421725,0.)) ;
#71=CARTESIAN_POINT('Line Origine',(150.,75.,0.)) ;
#75=CARTESIAN_POINT('Vertex',(150.,150.,0.)) ;
#78=CARTESIAN_POINT('Line Origine',(0.,150.,0.)) ;
#82=CARTESIAN_POINT('Vertex',(-150.,150.,0.)) ;
#85=CARTESIAN_POINT('Line Origine',(-150.,75.,0.)) ;
#89=CARTESIAN_POINT('Vertex',(-150.00000002,0.,0.)) ;
#92=CARTESIAN_POINT('Line Origine',(-142.487309983,0.,0.)) ;
#96=CARTESIAN_POINT('Vertex',(-134.974619947,0.,0.)) ;
#99=CARTESIAN_POINT('Line Origine',(-127.46192992,0.,0.)) ;
#103=CARTESIAN_POINT('Vertex',(-119.949239894,0.,0.)) ;
#106=CARTESIAN_POINT('Line Origine',(-112.436549867,0.,0.)) ;
#110=CARTESIAN_POINT('Vertex',(-104.923859841,0.,0.)) ;
#113=CARTESIAN_POINT('Line Origine',(-97.4111698144,0.,0.)) ;
#117=CARTESIAN_POINT('Vertex',(-89.8984797879,0.,0.)) ;
#120=CARTESIAN_POINT('Line Origine',(-82.3857897614,0.,0.)) ;
#124=CARTESIAN_POINT('Vertex',(-74.8730997349,0.,0.)) ;
#127=CARTESIAN_POINT('Line Origine',(-67.3604097084,0.,0.)) ;
#131=CARTESIAN_POINT('Vertex',(-59.8477196819,0.,0.)) ;
#134=CARTESIAN_POINT('Line Origine',(-52.3350296554,0.,0.)) ;
#138=CARTESIAN_POINT('Vertex',(-44.8223396289,0.,0.)) ;
#141=CARTESIAN_POINT('Line Origine',(-37.3096496024,0.,0.)) ;
#145=CARTESIAN_POINT('Vertex',(-29.7969595759,0.,0.)) ;
#148=CARTESIAN_POINT('Line Origine',(-22.2842695493,0.,0.)) ;
#152=CARTESIAN_POINT('Vertex',(-14.7715795228,0.,0.)) ;
#155=CARTESIAN_POINT('Line Origine',(-7.25888949633,0.,0.)) ;
#159=CARTESIAN_POINT('Vertex',(0.253800530182,0.,0.)) ;
#162=CARTESIAN_POINT('Line Origine',(7.76649055669,0.,0.)) ;
#166=CARTESIAN_POINT('Vertex',(15.2791805832,0.,0.)) ;
#169=CARTESIAN_POINT('Line Origine',(22.7918706097,0.,0.)) ;
#173=CARTESIAN_POINT('Vertex',(30.3045606362,0.,0.)) ;
#176=CARTESIAN_POINT('Line Origine',(37.8172506627,0.,0.)) ;
#180=CARTESIAN_POINT('Vertex',(45.3299406892,0.,0.)) ;
#183=CARTESIAN_POINT('Line Origine',(52.8426307157,0.,0.)) ;
#187=CARTESIAN_POINT('Vertex',(60.3553207423,0.,0.)) ;
#190=CARTESIAN_POINT('Line Origine',(67.8680107688,0.,0.)) ;
#194=CARTESIAN_POINT('Vertex',(75.3807007953,0.,0.)) ;
#197=CARTESIAN_POINT('Line Origine',(82.8933908218,0.,0.)) ;
#201=CARTESIAN_POINT('Vertex',(90.4060808483,0.,0.)) ;
#204=CARTESIAN_POINT('Line Origine',(97.9187708748,0.,0.)) ;
#208=CARTESIAN_POINT('Vertex',(105.431460901,0.,0.)) ;
#211=CARTESIAN_POINT('Line Origine',(112.944150928,0.,0.)) ;
#215=CARTESIAN_POINT('Vertex',(120.456840954,0.,0.)) ;
#218=CARTESIAN_POINT('Line Origine',(127.969530981,0.,0.)) ;
#249=CARTESIAN_POINT('Line Origine',(126.627718,-2.87752722384,0.)) ;
#253=CARTESIAN_POINT('Vertex',(132.798595045,-5.75505444768,0.)) ;
#256=CARTESIAN_POINT('Line Origine',(134.140408026,-2.87752722384,0.)) ;
#267=CARTESIAN_POINT('Line Origine',(111.602337947,-2.87752722384,0.)) ;
#271=CARTESIAN_POINT('Vertex',(117.773214992,-5.75505444768,0.)) ;
#274=CARTESIAN_POINT('Line Origine',(119.115027973,-2.87752722384,0.)) ;
#285=CARTESIAN_POINT('Line Origine',(96.5769578938,-2.87752722384,0.)) ;
#289=CARTESIAN_POINT('Vertex',(102.747834939,-5.75505444768,0.)) ;
#292=CARTESIAN_POINT('Line Origine',(104.08964792,-2.87752722384,0.)) ;
#303=CARTESIAN_POINT('Line Origine',(81.5515778408,-2.87752722384,0.)) ;
#307=CARTESIAN_POINT('Vertex',(87.7224548862,-5.75505444768,0.)) ;
#310=CARTESIAN_POINT('Line Origine',(89.0642678673,-2.87752722384,0.)) ;
#321=CARTESIAN_POINT('Line Origine',(66.5261977877,-2.87752722384,0.)) ;
#325=CARTESIAN_POINT('Vertex',(72.6970748332,-5.75505444768,0.)) ;
#328=CARTESIAN_POINT('Line Origine',(74.0388878142,-2.87752722384,0.)) ;
#339=CARTESIAN_POINT('Line Origine',(51.5008177347,-2.87752722384,0.)) ;
#343=CARTESIAN_POINT('Vertex',(57.6716947802,-5.75505444768,0.)) ;
#346=CARTESIAN_POINT('Line Origine',(59.0135077612,-2.87752722384,0.)) ;
#357=CARTESIAN_POINT('Line Origine',(36.4754376817,-2.87752722384,0.)) ;
#361=CARTESIAN_POINT('Vertex',(42.6463147272,-5.75505444768,0.)) ;
#364=CARTESIAN_POINT('Line Origine',(43.9881277082,-2.87752722384,0.)) ;
#375=CARTESIAN_POINT('Line Origine',(21.4500576287,-2.87752722384,0.)) ;
#379=CARTESIAN_POINT('Vertex',(27.6209346742,-5.75505444768,0.)) ;
#382=CARTESIAN_POINT('Line Origine',(28.9627476552,-2.87752722384,0.)) ;
#393=CARTESIAN_POINT('Line Origine',(6.42467757566,-2.87752722384,0.)) ;
#397=CARTESIAN_POINT('Vertex',(12.5955546211,-5.75505444768,0.)) ;
#400=CARTESIAN_POINT('Line Origine',(13.9373676022,-2.87752722384,0.)) ;
#411=CARTESIAN_POINT('Line Origine',(-8.60070247735,-2.87752722384,0.)) ;
#415=CARTESIAN_POINT('Vertex',(-2.42982543187,-5.75505444768,0.)) ;
#418=CARTESIAN_POINT('Line Origine',(-1.08801245084,-2.87752722384,0.)) ;
#429=CARTESIAN_POINT('Line Origine',(-23.6260825304,-2.87752722384,0.)) ;
#433=CARTESIAN_POINT('Vertex',(-17.4552054849,-5.75505444768,0.)) ;
#436=CARTESIAN_POINT('Line Origine',(-16.1133925039,-2.87752722384,0.)) ;
#447=CARTESIAN_POINT('Line Origine',(-38.6514625834,-2.87752722384,0.)) ;
#451=CARTESIAN_POINT('Vertex',(-32.4805855379,-5.75505444768,0.)) ;
#454=CARTESIAN_POINT('Line Origine',(-31.1387725569,-2.87752722384,0.)) ;
#465=CARTESIAN_POINT('Line Origine',(-53.6768426364,-2.87752722384,0.)) ;
#469=CARTESIAN_POINT('Vertex',(-47.5059655909,-5.75505444768,0.)) ;
#472=CARTESIAN_POINT('Line Origine',(-46.1641526099,-2.87752722384,0.)) ;
#483=CARTESIAN_POINT('Line Origine',(-68.7022226894,-2.87752722384,0.)) ;
#487=CARTESIAN_POINT('Vertex',(-62.5313456439,-5.75505444768,0.)) ;
#490=CARTESIAN_POINT('Line Origine',(-61.1895326629,-2.87752722384,0.)) ;
#501=CARTESIAN_POINT('Line Origine',(-83.7276027424,-2.87752722384,0.)) ;
#505=CARTESIAN_POINT('Vertex',(-77.556725697,-5.75505444768,0.)) ;
#508=CARTESIAN_POINT('Line Origine',(-76.2149127159,-2.87752722384,0.)) ;
#519=CARTESIAN_POINT('Line Origine',(-98.7529827955,-2.87752722384,0.)) ;
#523=CARTESIAN_POINT('Vertex',(-92.58210575,-5.75505444768,0.)) ;
#526=CARTESIAN_POINT('Line Origine',(-91.240292769,-2.87752722384,0.)) ;
#537=CARTESIAN_POINT('Line Origine',(-113.778362848,-2.87752722384,0.)) ;
#541=CARTESIAN_POINT('Vertex',(-107.607485803,-5.75505444768,0.)) ;
#544=CARTESIAN_POINT('Line Origine',(-106.265672822,-2.87752722384,0.)) ;
#555=CARTESIAN_POINT('Line Origine',(-128.803742901,-2.87752722384,0.)) ;
#559=CARTESIAN_POINT('Vertex',(-122.632865856,-5.75505444768,0.)) ;
#562=CARTESIAN_POINT('Line Origine',(-121.291052875,-2.87752722384,0.)) ;
#573=CARTESIAN_POINT('Line Origine',(-143.829122955,-2.87752722384,0.)) ;
#577=CARTESIAN_POINT('Vertex',(-137.658245909,-5.75505444768,0.)) ;
#580=CARTESIAN_POINT('Line Origine',(-136.316432928,-2.87752722384,0.)) ;
#591=CARTESIAN_POINT('Line Origine',(-150.,-75.,0.)) ;
#595=CARTESIAN_POINT('Vertex',(-150.,-150.,0.)) ;
#598=CARTESIAN_POINT('Line Origine',(0.,-150.,0.)) ;
#602=CARTESIAN_POINT('Vertex',(150.,-150.,0.)) ;
#605=CARTESIAN_POINT('Line Origine',(150.,-75.5442769934,0.)) ;
#8=PRODUCT_RELATED_PRODUCT_CATEGORY('part',$,(#5)) ;
#15=UNCERTAINTY_MEASURE_WITH_UNIT(LENGTH_MEASURE(0.005),#12,'distance_accuracy_value','CONFUSED CURVE UNCERTAINTY') ;
#30=STYLED_ITEM(' ',(#29),#22) ;
#29=PRESENTATION_STYLE_ASSIGNMENT((#28)) ;
#28=SURFACE_STYLE_USAGE(.BOTH.,#27) ;
#27=SURFACE_SIDE_STYLE(' ',(#26)) ;
#26=SURFACE_STYLE_FILL_AREA(#25) ;
#25=FILL_AREA_STYLE(' ',(#24)) ;
#24=FILL_AREA_STYLE_COLOUR(' ',#23) ;
#38=VECTOR('Line Direction',#37,1.) ;
#47=VECTOR('Line Direction',#46,1.) ;
#54=VECTOR('Line Direction',#53,1.) ;
#61=VECTOR('Line Direction',#60,1.) ;
#73=VECTOR('Line Direction',#72,1.) ;
#80=VECTOR('Line Direction',#79,1.) ;
#87=VECTOR('Line Direction',#86,1.) ;
#94=VECTOR('Line Direction',#93,1.) ;
#101=VECTOR('Line Direction',#100,1.) ;
#108=VECTOR('Line Direction',#107,1.) ;
#115=VECTOR('Line Direction',#114,1.) ;
#122=VECTOR('Line Direction',#121,1.) ;
#129=VECTOR('Line Direction',#128,1.) ;
#136=VECTOR('Line Direction',#135,1.) ;
#143=VECTOR('Line Direction',#142,1.) ;
#150=VECTOR('Line Direction',#149,1.) ;
#157=VECTOR('Line Direction',#156,1.) ;
#164=VECTOR('Line Direction',#163,1.) ;
#171=VECTOR('Line Direction',#170,1.) ;
#178=VECTOR('Line Direction',#177,1.) ;
#185=VECTOR('Line Direction',#184,1.) ;
#192=VECTOR('Line Direction',#191,1.) ;
#199=VECTOR('Line Direction',#198,1.) ;
#206=VECTOR('Line Direction',#205,1.) ;
#213=VECTOR('Line Direction',#212,1.) ;
#220=VECTOR('Line Direction',#219,1.) ;
#251=VECTOR('Line Direction',#250,1.) ;
#258=VECTOR('Line Direction',#257,1.) ;
#269=VECTOR('Line Direction',#268,1.) ;
#276=VECTOR('Line Direction',#275,1.) ;
#287=VECTOR('Line Direction',#286,1.) ;
#294=VECTOR('Line Direction',#293,1.) ;
#305=VECTOR('Line Direction',#304,1.) ;
#312=VECTOR('Line Direction',#311,1.) ;
#323=VECTOR('Line Direction',#322,1.) ;
#330=VECTOR('Line Direction',#329,1.) ;
#341=VECTOR('Line Direction',#340,1.) ;
#348=VECTOR('Line Direction',#347,1.) ;
#359=VECTOR('Line Direction',#358,1.) ;
#366=VECTOR('Line Direction',#365,1.) ;
#377=VECTOR('Line Direction',#376,1.) ;
#384=VECTOR('Line Direction',#383,1.) ;
#395=VECTOR('Line Direction',#394,1.) ;
#402=VECTOR('Line Direction',#401,1.) ;
#413=VECTOR('Line Direction',#412,1.) ;
#420=VECTOR('Line Direction',#419,1.) ;
#431=VECTOR('Line Direction',#430,1.) ;
#438=VECTOR('Line Direction',#437,1.) ;
#449=VECTOR('Line Direction',#448,1.) ;
#456=VECTOR('Line Direction',#455,1.) ;
#467=VECTOR('Line Direction',#466,1.) ;
#474=VECTOR('Line Direction',#473,1.) ;
#485=VECTOR('Line Direction',#484,1.) ;
#492=VECTOR('Line Direction',#491,1.) ;
#503=VECTOR('Line Direction',#502,1.) ;
#510=VECTOR('Line Direction',#509,1.) ;
#521=VECTOR('Line Direction',#520,1.) ;
#528=VECTOR('Line Direction',#527,1.) ;
#539=VECTOR('Line Direction',#538,1.) ;
#546=VECTOR('Line Direction',#545,1.) ;
#557=VECTOR('Line Direction',#556,1.) ;
#564=VECTOR('Line Direction',#563,1.) ;
#575=VECTOR('Line Direction',#574,1.) ;
#582=VECTOR('Line Direction',#581,1.) ;
#593=VECTOR('Line Direction',#592,1.) ;
#600=VECTOR('Line Direction',#599,1.) ;
#607=VECTOR('Line Direction',#606,1.) ;
#32=DIRECTION('Axis2P3D Direction',(0.,0.,1.)) ;
#33=DIRECTION('Axis2P3D XDirection',(1.,0.,0.)) ;
#37=DIRECTION('Vector Direction',(0.,1.,0.)) ;
#46=DIRECTION('Vector Direction',(1.,0.,0.)) ;
#53=DIRECTION('Vector Direction',(0.906307787037,-0.422618261741,0.)) ;
#60=DIRECTION('Vector Direction',(-0.422618261741,-0.906307787037,0.)) ;
#72=DIRECTION('Vector Direction',(0.,1.,0.)) ;
#79=DIRECTION('Vector Direction',(1.,0.,0.)) ;
#86=DIRECTION('Vector Direction',(0.,-1.,0.)) ;
#93=DIRECTION('Vector Direction',(1.,0.,0.)) ;
#100=DIRECTION('Vector Direction',(1.,0.,0.)) ;
#107=DIRECTION('Vector Direction',(1.,0.,0.)) ;
#114=DIRECTION('Vector Direction',(1.,0.,0.)) ;
#121=DIRECTION('Vector Direction',(1.,0.,0.)) ;
#128=DIRECTION('Vector Direction',(1.,0.,0.)) ;
#135=DIRECTION('Vector Direction',(1.,0.,0.)) ;
#142=DIRECTION('Vector Direction',(1.,0.,0.)) ;
#149=DIRECTION('Vector Direction',(1.,0.,0.)) ;
#156=DIRECTION('Vector Direction',(1.,0.,0.)) ;
#163=DIRECTION('Vector Direction',(1.,0.,0.)) ;
#170=DIRECTION('Vector Direction',(1.,0.,0.)) ;
#177=DIRECTION('Vector Direction',(1.,0.,0.)) ;
#184=DIRECTION('Vector Direction',(1.,0.,0.)) ;
#191=DIRECTION('Vector Direction',(1.,0.,0.)) ;
#198=DIRECTION('Vector Direction',(1.,0.,0.)) ;
#205=DIRECTION('Vector Direction',(1.,0.,0.)) ;
#212=DIRECTION('Vector Direction',(1.,0.,0.)) ;
#219=DIRECTION('Vector Direction',(1.,0.,0.)) ;
#250=DIRECTION('Vector Direction',(0.906307787037,-0.422618261741,0.)) ;
#257=DIRECTION('Vector Direction',(-0.422618261741,-0.906307787037,0.)) ;
#268=DIRECTION('Vector Direction',(0.906307787037,-0.422618261741,0.)) ;
#275=DIRECTION('Vector Direction',(-0.422618261741,-0.906307787037,0.)) ;
#286=DIRECTION('Vector Direction',(0.906307787037,-0.422618261741,0.)) ;
#293=DIRECTION('Vector Direction',(-0.422618261741,-0.906307787037,0.)) ;
#304=DIRECTION('Vector Direction',(0.906307787037,-0.422618261741,0.)) ;
#311=DIRECTION('Vector Direction',(-0.422618261741,-0.906307787037,0.)) ;
#322=DIRECTION('Vector Direction',(0.906307787037,-0.422618261741,0.)) ;
#329=DIRECTION('Vector Direction',(-0.422618261741,-0.906307787037,0.)) ;
#340=DIRECTION('Vector Direction',(0.906307787037,-0.422618261741,0.)) ;
#347=DIRECTION('Vector Direction',(-0.422618261741,-0.906307787037,0.)) ;
#358=DIRECTION('Vector Direction',(0.906307787037,-0.422618261741,0.)) ;
#365=DIRECTION('Vector Direction',(-0.422618261741,-0.906307787037,0.)) ;
#376=DIRECTION('Vector Direction',(0.906307787037,-0.422618261741,0.)) ;
#383=DIRECTION('Vector Direction',(-0.422618261741,-0.906307787037,0.)) ;
#394=DIRECTION('Vector Direction',(0.906307787037,-0.422618261741,0.)) ;
#401=DIRECTION('Vector Direction',(-0.422618261741,-0.906307787037,0.)) ;
#412=DIRECTION('Vector Direction',(0.906307787037,-0.422618261741,0.)) ;
#419=DIRECTION('Vector Direction',(-0.422618261741,-0.906307787037,0.)) ;
#430=DIRECTION('Vector Direction',(0.906307787037,-0.422618261741,0.)) ;
#437=DIRECTION('Vector Direction',(-0.422618261741,-0.906307787037,0.)) ;
#448=DIRECTION('Vector Direction',(0.906307787037,-0.422618261741,0.)) ;
#455=DIRECTION('Vector Direction',(-0.422618261741,-0.906307787037,0.)) ;
#466=DIRECTION('Vector Direction',(0.906307787037,-0.422618261741,0.)) ;
#473=DIRECTION('Vector Direction',(-0.422618261741,-0.906307787037,0.)) ;
#484=DIRECTION('Vector Direction',(0.906307787037,-0.422618261741,0.)) ;
#491=DIRECTION('Vector Direction',(-0.422618261741,-0.906307787037,0.)) ;
#502=DIRECTION('Vector Direction',(0.906307787037,-0.422618261741,0.)) ;
#509=DIRECTION('Vector Direction',(-0.422618261741,-0.906307787037,0.)) ;
#520=DIRECTION('Vector Direction',(0.906307787037,-0.422618261741,0.)) ;
#527=DIRECTION('Vector Direction',(-0.422618261741,-0.906307787037,0.)) ;
#538=DIRECTION('Vector Direction',(0.906307787037,-0.422618261741,0.)) ;
#545=DIRECTION('Vector Direction',(-0.422618261741,-0.906307787037,0.)) ;
#556=DIRECTION('Vector Direction',(0.906307787037,-0.422618261741,0.)) ;
#563=DIRECTION('Vector Direction',(-0.422618261741,-0.906307787037,0.)) ;
#574=DIRECTION('Vector Direction',(0.906307787037,-0.422618261741,0.)) ;
#581=DIRECTION('Vector Direction',(-0.422618261741,-0.906307787037,0.)) ;
#592=DIRECTION('Vector Direction',(0.,-1.,0.)) ;
#599=DIRECTION('Vector Direction',(-1.,0.,0.)) ;
#606=DIRECTION('Vector Direction',(0.,1.,0.)) ;
#657=SHAPE_REPRESENTATION_RELATIONSHIP(' ',' ',#19,#656) ;
#18=AXIS2_PLACEMENT_3D(' ',#17,$,$) ;
#34=AXIS2_PLACEMENT_3D('Plane Axis2P3D',#31,#32,#33) ;
#39=LINE('Line',#36,#38) ;
#48=LINE('Line',#45,#47) ;
#55=LINE('Line',#52,#54) ;
#62=LINE('Line',#59,#61) ;
#74=LINE('Line',#71,#73) ;
#81=LINE('Line',#78,#80) ;
#88=LINE('Line',#85,#87) ;
#95=LINE('Line',#92,#94) ;
#102=LINE('Line',#99,#101) ;
#109=LINE('Line',#106,#108) ;
#116=LINE('Line',#113,#115) ;
#123=LINE('Line',#120,#122) ;
#130=LINE('Line',#127,#129) ;
#137=LINE('Line',#134,#136) ;
#144=LINE('Line',#141,#143) ;
#151=LINE('Line',#148,#150) ;
#158=LINE('Line',#155,#157) ;
#165=LINE('Line',#162,#164) ;
#172=LINE('Line',#169,#171) ;
#179=LINE('Line',#176,#178) ;
#186=LINE('Line',#183,#185) ;
#193=LINE('Line',#190,#192) ;
#200=LINE('Line',#197,#199) ;
#207=LINE('Line',#204,#206) ;
#214=LINE('Line',#211,#213) ;
#221=LINE('Line',#218,#220) ;
#252=LINE('Line',#249,#251) ;
#259=LINE('Line',#256,#258) ;
#270=LINE('Line',#267,#269) ;
#277=LINE('Line',#274,#276) ;
#288=LINE('Line',#285,#287) ;
#295=LINE('Line',#292,#294) ;
#306=LINE('Line',#303,#305) ;
#313=LINE('Line',#310,#312) ;
#324=LINE('Line',#321,#323) ;
#331=LINE('Line',#328,#330) ;
#342=LINE('Line',#339,#341) ;
#349=LINE('Line',#346,#348) ;
#360=LINE('Line',#357,#359) ;
#367=LINE('Line',#364,#366) ;
#378=LINE('Line',#375,#377) ;
#385=LINE('Line',#382,#384) ;
#396=LINE('Line',#393,#395) ;
#403=LINE('Line',#400,#402) ;
#414=LINE('Line',#411,#413) ;
#421=LINE('Line',#418,#420) ;
#432=LINE('Line',#429,#431) ;
#439=LINE('Line',#436,#438) ;
#450=LINE('Line',#447,#449) ;
#457=LINE('Line',#454,#456) ;
#468=LINE('Line',#465,#467) ;
#475=LINE('Line',#472,#474) ;
#486=LINE('Line',#483,#485) ;
#493=LINE('Line',#490,#492) ;
#504=LINE('Line',#501,#503) ;
#511=LINE('Line',#508,#510) ;
#522=LINE('Line',#519,#521) ;
#529=LINE('Line',#526,#528) ;
#540=LINE('Line',#537,#539) ;
#547=LINE('Line',#544,#546) ;
#558=LINE('Line',#555,#557) ;
#565=LINE('Line',#562,#564) ;
#576=LINE('Line',#573,#575) ;
#583=LINE('Line',#580,#582) ;
#594=LINE('Line',#591,#593) ;
#601=LINE('Line',#598,#600) ;
#608=LINE('Line',#605,#607) ;
#35=PLANE('',#34) ;
#44=EDGE_CURVE('',#41,#43,#39,.T.) ;
#51=EDGE_CURVE('',#50,#43,#48,.T.) ;
#58=EDGE_CURVE('',#50,#57,#55,.T.) ;
#63=EDGE_CURVE('',#41,#57,#62,.T.) ;
#77=EDGE_CURVE('',#43,#76,#74,.T.) ;
#84=EDGE_CURVE('',#76,#83,#81,.F.) ;
#91=EDGE_CURVE('',#83,#90,#88,.T.) ;
#98=EDGE_CURVE('',#90,#97,#95,.T.) ;
#105=EDGE_CURVE('',#97,#104,#102,.T.) ;
#112=EDGE_CURVE('',#104,#111,#109,.T.) ;
#119=EDGE_CURVE('',#111,#118,#116,.T.) ;
#126=EDGE_CURVE('',#118,#125,#123,.T.) ;
#133=EDGE_CURVE('',#125,#132,#130,.T.) ;
#140=EDGE_CURVE('',#132,#139,#137,.T.) ;
#147=EDGE_CURVE('',#139,#146,#144,.T.) ;
#154=EDGE_CURVE('',#146,#153,#151,.T.) ;
#161=EDGE_CURVE('',#153,#160,#158,.T.) ;
#168=EDGE_CURVE('',#160,#167,#165,.T.) ;
#175=EDGE_CURVE('',#167,#174,#172,.T.) ;
#182=EDGE_CURVE('',#174,#181,#179,.T.) ;
#189=EDGE_CURVE('',#181,#188,#186,.T.) ;
#196=EDGE_CURVE('',#188,#195,#193,.T.) ;
#203=EDGE_CURVE('',#195,#202,#200,.T.) ;
#210=EDGE_CURVE('',#202,#209,#207,.T.) ;
#217=EDGE_CURVE('',#209,#216,#214,.T.) ;
#222=EDGE_CURVE('',#216,#50,#221,.T.) ;
#255=EDGE_CURVE('',#216,#254,#252,.T.) ;
#260=EDGE_CURVE('',#50,#254,#259,.T.) ;
#273=EDGE_CURVE('',#209,#272,#270,.T.) ;
#278=EDGE_CURVE('',#216,#272,#277,.T.) ;
#291=EDGE_CURVE('',#202,#290,#288,.T.) ;
#296=EDGE_CURVE('',#209,#290,#295,.T.) ;
#309=EDGE_CURVE('',#195,#308,#306,.T.) ;
#314=EDGE_CURVE('',#202,#308,#313,.T.) ;
#327=EDGE_CURVE('',#188,#326,#324,.T.) ;
#332=EDGE_CURVE('',#195,#326,#331,.T.) ;
#345=EDGE_CURVE('',#181,#344,#342,.T.) ;
#350=EDGE_CURVE('',#188,#344,#349,.T.) ;
#363=EDGE_CURVE('',#174,#362,#360,.T.) ;
#368=EDGE_CURVE('',#181,#362,#367,.T.) ;
#381=EDGE_CURVE('',#167,#380,#378,.T.) ;
#386=EDGE_CURVE('',#174,#380,#385,.T.) ;
#399=EDGE_CURVE('',#160,#398,#396,.T.) ;
#404=EDGE_CURVE('',#167,#398,#403,.T.) ;
#417=EDGE_CURVE('',#153,#416,#414,.T.) ;
#422=EDGE_CURVE('',#160,#416,#421,.T.) ;
#435=EDGE_CURVE('',#146,#434,#432,.T.) ;
#440=EDGE_CURVE('',#153,#434,#439,.T.) ;
#453=EDGE_CURVE('',#139,#452,#450,.T.) ;
#458=EDGE_CURVE('',#146,#452,#457,.T.) ;
#471=EDGE_CURVE('',#132,#470,#468,.T.) ;
#476=EDGE_CURVE('',#139,#470,#475,.T.) ;
#489=EDGE_CURVE('',#125,#488,#486,.T.) ;
#494=EDGE_CURVE('',#132,#488,#493,.T.) ;
#507=EDGE_CURVE('',#118,#506,#504,.T.) ;
#512=EDGE_CURVE('',#125,#506,#511,.T.) ;
#525=EDGE_CURVE('',#111,#524,#522,.T.) ;
#530=EDGE_CURVE('',#118,#524,#529,.T.) ;
#543=EDGE_CURVE('',#104,#542,#540,.T.) ;
#548=EDGE_CURVE('',#111,#542,#547,.T.) ;
#561=EDGE_CURVE('',#97,#560,#558,.T.) ;
#566=EDGE_CURVE('',#104,#560,#565,.T.) ;
#579=EDGE_CURVE('',#90,#578,#576,.T.) ;
#584=EDGE_CURVE('',#97,#578,#583,.T.) ;
#597=EDGE_CURVE('',#90,#596,#594,.T.) ;
#604=EDGE_CURVE('',#596,#603,#601,.F.) ;
#609=EDGE_CURVE('',#603,#41,#608,.T.) ;
#21=OPEN_SHELL('Join.3',(#70,#248,#266,#284,#302,#320,#338,#356,#374,#392,#410,#428,#446,#464,#482,#500,#518,#536,#554,#572,#590,#655)) ;
#65=ORIENTED_EDGE('',*,*,#44,.T.) ;
#66=ORIENTED_EDGE('',*,*,#51,.F.) ;
#67=ORIENTED_EDGE('',*,*,#58,.T.) ;
#68=ORIENTED_EDGE('',*,*,#63,.F.) ;
#224=ORIENTED_EDGE('',*,*,#77,.T.) ;
#225=ORIENTED_EDGE('',*,*,#84,.T.) ;
#226=ORIENTED_EDGE('',*,*,#91,.T.) ;
#227=ORIENTED_EDGE('',*,*,#98,.T.) ;
#228=ORIENTED_EDGE('',*,*,#105,.T.) ;
#229=ORIENTED_EDGE('',*,*,#112,.T.) ;
#230=ORIENTED_EDGE('',*,*,#119,.T.) ;
#231=ORIENTED_EDGE('',*,*,#126,.T.) ;
#232=ORIENTED_EDGE('',*,*,#133,.T.) ;
#233=ORIENTED_EDGE('',*,*,#140,.T.) ;
#234=ORIENTED_EDGE('',*,*,#147,.T.) ;
#235=ORIENTED_EDGE('',*,*,#154,.T.) ;
#236=ORIENTED_EDGE('',*,*,#161,.T.) ;
#237=ORIENTED_EDGE('',*,*,#168,.T.) ;
#238=ORIENTED_EDGE('',*,*,#175,.T.) ;
#239=ORIENTED_EDGE('',*,*,#182,.T.) ;
#240=ORIENTED_EDGE('',*,*,#189,.T.) ;
#241=ORIENTED_EDGE('',*,*,#196,.T.) ;
#242=ORIENTED_EDGE('',*,*,#203,.T.) ;
#243=ORIENTED_EDGE('',*,*,#210,.T.) ;
#244=ORIENTED_EDGE('',*,*,#217,.T.) ;
#245=ORIENTED_EDGE('',*,*,#222,.T.) ;
#246=ORIENTED_EDGE('',*,*,#51,.T.) ;
#262=ORIENTED_EDGE('',*,*,#222,.F.) ;
#263=ORIENTED_EDGE('',*,*,#255,.T.) ;
#264=ORIENTED_EDGE('',*,*,#260,.F.) ;
#280=ORIENTED_EDGE('',*,*,#217,.F.) ;
#281=ORIENTED_EDGE('',*,*,#273,.T.) ;
#282=ORIENTED_EDGE('',*,*,#278,.F.) ;
#298=ORIENTED_EDGE('',*,*,#210,.F.) ;
#299=ORIENTED_EDGE('',*,*,#291,.T.) ;
#300=ORIENTED_EDGE('',*,*,#296,.F.) ;
#316=ORIENTED_EDGE('',*,*,#203,.F.) ;
#317=ORIENTED_EDGE('',*,*,#309,.T.) ;
#318=ORIENTED_EDGE('',*,*,#314,.F.) ;
#334=ORIENTED_EDGE('',*,*,#196,.F.) ;
#335=ORIENTED_EDGE('',*,*,#327,.T.) ;
#336=ORIENTED_EDGE('',*,*,#332,.F.) ;
#352=ORIENTED_EDGE('',*,*,#189,.F.) ;
#353=ORIENTED_EDGE('',*,*,#345,.T.) ;
#354=ORIENTED_EDGE('',*,*,#350,.F.) ;
#370=ORIENTED_EDGE('',*,*,#182,.F.) ;
#371=ORIENTED_EDGE('',*,*,#363,.T.) ;
#372=ORIENTED_EDGE('',*,*,#368,.F.) ;
#388=ORIENTED_EDGE('',*,*,#175,.F.) ;
#389=ORIENTED_EDGE('',*,*,#381,.T.) ;
#390=ORIENTED_EDGE('',*,*,#386,.F.) ;
#406=ORIENTED_EDGE('',*,*,#168,.F.) ;
#407=ORIENTED_EDGE('',*,*,#399,.T.) ;
#408=ORIENTED_EDGE('',*,*,#404,.F.) ;
#424=ORIENTED_EDGE('',*,*,#161,.F.) ;
#425=ORIENTED_EDGE('',*,*,#417,.T.) ;
#426=ORIENTED_EDGE('',*,*,#422,.F.) ;
#442=ORIENTED_EDGE('',*,*,#154,.F.) ;
#443=ORIENTED_EDGE('',*,*,#435,.T.) ;
#444=ORIENTED_EDGE('',*,*,#440,.F.) ;
#460=ORIENTED_EDGE('',*,*,#147,.F.) ;
#461=ORIENTED_EDGE('',*,*,#453,.T.) ;
#462=ORIENTED_EDGE('',*,*,#458,.F.) ;
#478=ORIENTED_EDGE('',*,*,#140,.F.) ;
#479=ORIENTED_EDGE('',*,*,#471,.T.) ;
#480=ORIENTED_EDGE('',*,*,#476,.F.) ;
#496=ORIENTED_EDGE('',*,*,#133,.F.) ;
#497=ORIENTED_EDGE('',*,*,#489,.T.) ;
#498=ORIENTED_EDGE('',*,*,#494,.F.) ;
#514=ORIENTED_EDGE('',*,*,#126,.F.) ;
#515=ORIENTED_EDGE('',*,*,#507,.T.) ;
#516=ORIENTED_EDGE('',*,*,#512,.F.) ;
#532=ORIENTED_EDGE('',*,*,#119,.F.) ;
#533=ORIENTED_EDGE('',*,*,#525,.T.) ;
#534=ORIENTED_EDGE('',*,*,#530,.F.) ;
#550=ORIENTED_EDGE('',*,*,#112,.F.) ;
#551=ORIENTED_EDGE('',*,*,#543,.T.) ;
#552=ORIENTED_EDGE('',*,*,#548,.F.) ;
#568=ORIENTED_EDGE('',*,*,#105,.F.) ;
#569=ORIENTED_EDGE('',*,*,#561,.T.) ;
#570=ORIENTED_EDGE('',*,*,#566,.F.) ;
#586=ORIENTED_EDGE('',*,*,#98,.F.) ;
#587=ORIENTED_EDGE('',*,*,#579,.T.) ;
#588=ORIENTED_EDGE('',*,*,#584,.F.) ;
#611=ORIENTED_EDGE('',*,*,#63,.T.) ;
#612=ORIENTED_EDGE('',*,*,#58,.F.) ;
#613=ORIENTED_EDGE('',*,*,#260,.T.) ;
#614=ORIENTED_EDGE('',*,*,#255,.F.) ;
#615=ORIENTED_EDGE('',*,*,#278,.T.) ;
#616=ORIENTED_EDGE('',*,*,#273,.F.) ;
#617=ORIENTED_EDGE('',*,*,#296,.T.) ;
#618=ORIENTED_EDGE('',*,*,#291,.F.) ;
#619=ORIENTED_EDGE('',*,*,#314,.T.) ;
#620=ORIENTED_EDGE('',*,*,#309,.F.) ;
#621=ORIENTED_EDGE('',*,*,#332,.T.) ;
#622=ORIENTED_EDGE('',*,*,#327,.F.) ;
#623=ORIENTED_EDGE('',*,*,#350,.T.) ;
#624=ORIENTED_EDGE('',*,*,#345,.F.) ;
#625=ORIENTED_EDGE('',*,*,#368,.T.) ;
#626=ORIENTED_EDGE('',*,*,#363,.F.) ;
#627=ORIENTED_EDGE('',*,*,#386,.T.) ;
#628=ORIENTED_EDGE('',*,*,#381,.F.) ;
#629=ORIENTED_EDGE('',*,*,#404,.T.) ;
#630=ORIENTED_EDGE('',*,*,#399,.F.) ;
#631=ORIENTED_EDGE('',*,*,#422,.T.) ;
#632=ORIENTED_EDGE('',*,*,#417,.F.) ;
#633=ORIENTED_EDGE('',*,*,#440,.T.) ;
#634=ORIENTED_EDGE('',*,*,#435,.F.) ;
#635=ORIENTED_EDGE('',*,*,#458,.T.) ;
#636=ORIENTED_EDGE('',*,*,#453,.F.) ;
#637=ORIENTED_EDGE('',*,*,#476,.T.) ;
#638=ORIENTED_EDGE('',*,*,#471,.F.) ;
#639=ORIENTED_EDGE('',*,*,#494,.T.) ;
#640=ORIENTED_EDGE('',*,*,#489,.F.) ;
#641=ORIENTED_EDGE('',*,*,#512,.T.) ;
#642=ORIENTED_EDGE('',*,*,#507,.F.) ;
#643=ORIENTED_EDGE('',*,*,#530,.T.) ;
#644=ORIENTED_EDGE('',*,*,#525,.F.) ;
#645=ORIENTED_EDGE('',*,*,#548,.T.) ;
#646=ORIENTED_EDGE('',*,*,#543,.F.) ;
#647=ORIENTED_EDGE('',*,*,#566,.T.) ;
#648=ORIENTED_EDGE('',*,*,#561,.F.) ;
#649=ORIENTED_EDGE('',*,*,#584,.T.) ;
#650=ORIENTED_EDGE('',*,*,#579,.F.) ;
#651=ORIENTED_EDGE('',*,*,#597,.T.) ;
#652=ORIENTED_EDGE('',*,*,#604,.T.) ;
#653=ORIENTED_EDGE('',*,*,#609,.T.) ;
#64=EDGE_LOOP('',(#65,#66,#67,#68)) ;
#223=EDGE_LOOP('',(#224,#225,#226,#227,#228,#229,#230,#231,#232,#233,#234,#235,#236,#237,#238,#239,#240,#241,#242,#243,#244,#245,#246)) ;
#261=EDGE_LOOP('',(#262,#263,#264)) ;
#279=EDGE_LOOP('',(#280,#281,#282)) ;
#297=EDGE_LOOP('',(#298,#299,#300)) ;
#315=EDGE_LOOP('',(#316,#317,#318)) ;
#333=EDGE_LOOP('',(#334,#335,#336)) ;
#351=EDGE_LOOP('',(#352,#353,#354)) ;
#369=EDGE_LOOP('',(#370,#371,#372)) ;
#387=EDGE_LOOP('',(#388,#389,#390)) ;
#405=EDGE_LOOP('',(#406,#407,#408)) ;
#423=EDGE_LOOP('',(#424,#425,#426)) ;
#441=EDGE_LOOP('',(#442,#443,#444)) ;
#459=EDGE_LOOP('',(#460,#461,#462)) ;
#477=EDGE_LOOP('',(#478,#479,#480)) ;
#495=EDGE_LOOP('',(#496,#497,#498)) ;
#513=EDGE_LOOP('',(#514,#515,#516)) ;
#531=EDGE_LOOP('',(#532,#533,#534)) ;
#549=EDGE_LOOP('',(#550,#551,#552)) ;
#567=EDGE_LOOP('',(#568,#569,#570)) ;
#585=EDGE_LOOP('',(#586,#587,#588)) ;
#610=EDGE_LOOP('',(#611,#612,#613,#614,#615,#616,#617,#618,#619,#620,#621,#622,#623,#624,#625,#626,#627,#628,#629,#630,#631,#632,#633,#634,#635,#636,#637,#638,#639,#640,#641,#642,#643,#644,#645,#646,#647,#648,#649,#650,#651,#652,#653)) ;
#41=VERTEX_POINT('',#40) ;
#43=VERTEX_POINT('',#42) ;
#50=VERTEX_POINT('',#49) ;
#57=VERTEX_POINT('',#56) ;
#76=VERTEX_POINT('',#75) ;
#83=VERTEX_POINT('',#82) ;
#90=VERTEX_POINT('',#89) ;
#97=VERTEX_POINT('',#96) ;
#104=VERTEX_POINT('',#103) ;
#111=VERTEX_POINT('',#110) ;
#118=VERTEX_POINT('',#117) ;
#125=VERTEX_POINT('',#124) ;
#132=VERTEX_POINT('',#131) ;
#139=VERTEX_POINT('',#138) ;
#146=VERTEX_POINT('',#145) ;
#153=VERTEX_POINT('',#152) ;
#160=VERTEX_POINT('',#159) ;
#167=VERTEX_POINT('',#166) ;
#174=VERTEX_POINT('',#173) ;
#181=VERTEX_POINT('',#180) ;
#188=VERTEX_POINT('',#187) ;
#195=VERTEX_POINT('',#194) ;
#202=VERTEX_POINT('',#201) ;
#209=VERTEX_POINT('',#208) ;
#216=VERTEX_POINT('',#215) ;
#254=VERTEX_POINT('',#253) ;
#272=VERTEX_POINT('',#271) ;
#290=VERTEX_POINT('',#289) ;
#308=VERTEX_POINT('',#307) ;
#326=VERTEX_POINT('',#325) ;
#344=VERTEX_POINT('',#343) ;
#362=VERTEX_POINT('',#361) ;
#380=VERTEX_POINT('',#379) ;
#398=VERTEX_POINT('',#397) ;
#416=VERTEX_POINT('',#415) ;
#434=VERTEX_POINT('',#433) ;
#452=VERTEX_POINT('',#451) ;
#470=VERTEX_POINT('',#469) ;
#488=VERTEX_POINT('',#487) ;
#506=VERTEX_POINT('',#505) ;
#524=VERTEX_POINT('',#523) ;
#542=VERTEX_POINT('',#541) ;
#560=VERTEX_POINT('',#559) ;
#578=VERTEX_POINT('',#577) ;
#596=VERTEX_POINT('',#595) ;
#603=VERTEX_POINT('',#602) ;
#22=SHELL_BASED_SURFACE_MODEL('NONE',(#21)) ;
#70=ADVANCED_FACE('Join.3',(#69),#35,.T.) ;
#248=ADVANCED_FACE('Join.3',(#247),#35,.T.) ;
#266=ADVANCED_FACE('Join.3',(#265),#35,.T.) ;
#284=ADVANCED_FACE('Join.3',(#283),#35,.T.) ;
#302=ADVANCED_FACE('Join.3',(#301),#35,.T.) ;
#320=ADVANCED_FACE('Join.3',(#319),#35,.T.) ;
#338=ADVANCED_FACE('Join.3',(#337),#35,.T.) ;
#356=ADVANCED_FACE('Join.3',(#355),#35,.T.) ;
#374=ADVANCED_FACE('Join.3',(#373),#35,.T.) ;
#392=ADVANCED_FACE('Join.3',(#391),#35,.T.) ;
#410=ADVANCED_FACE('Join.3',(#409),#35,.T.) ;
#428=ADVANCED_FACE('Join.3',(#427),#35,.T.) ;
#446=ADVANCED_FACE('Join.3',(#445),#35,.T.) ;
#464=ADVANCED_FACE('Join.3',(#463),#35,.T.) ;
#482=ADVANCED_FACE('Join.3',(#481),#35,.T.) ;
#500=ADVANCED_FACE('Join.3',(#499),#35,.T.) ;
#518=ADVANCED_FACE('Join.3',(#517),#35,.T.) ;
#536=ADVANCED_FACE('Join.3',(#535),#35,.T.) ;
#554=ADVANCED_FACE('Join.3',(#553),#35,.T.) ;
#572=ADVANCED_FACE('Join.3',(#571),#35,.T.) ;
#590=ADVANCED_FACE('Join.3',(#589),#35,.T.) ;
#655=ADVANCED_FACE('Join.3',(#654),#35,.T.) ;
#4=APPLICATION_PROTOCOL_DEFINITION('international standard','ap242_managed_model_based_3d_engineering',2014,#1) ;
#23=COLOUR_RGB('Colour',0.952941176471,0.996078431373,0.694117647059) ;
#69=FACE_OUTER_BOUND('',#64,.T.) ;
#247=FACE_OUTER_BOUND('',#223,.T.) ;
#265=FACE_OUTER_BOUND('',#261,.T.) ;
#283=FACE_OUTER_BOUND('',#279,.T.) ;
#301=FACE_OUTER_BOUND('',#297,.T.) ;
#319=FACE_OUTER_BOUND('',#315,.T.) ;
#337=FACE_OUTER_BOUND('',#333,.T.) ;
#355=FACE_OUTER_BOUND('',#351,.T.) ;
#373=FACE_OUTER_BOUND('',#369,.T.) ;
#391=FACE_OUTER_BOUND('',#387,.T.) ;
#409=FACE_OUTER_BOUND('',#405,.T.) ;
#427=FACE_OUTER_BOUND('',#423,.T.) ;
#445=FACE_OUTER_BOUND('',#441,.T.) ;
#463=FACE_OUTER_BOUND('',#459,.T.) ;
#481=FACE_OUTER_BOUND('',#477,.T.) ;
#499=FACE_OUTER_BOUND('',#495,.T.) ;
#517=FACE_OUTER_BOUND('',#513,.T.) ;
#535=FACE_OUTER_BOUND('',#531,.T.) ;
#553=FACE_OUTER_BOUND('',#549,.T.) ;
#571=FACE_OUTER_BOUND('',#567,.T.) ;
#589=FACE_OUTER_BOUND('',#585,.T.) ;
#654=FACE_OUTER_BOUND('',#610,.T.) ;
#656=MANIFOLD_SURFACE_SHAPE_REPRESENTATION('NONE',(#22),#16) ;
#9=PRODUCT_CATEGORY_RELATIONSHIP(' ',' ',#7,#8) ;
#6=PRODUCT_DEFINITION_FORMATION_WITH_SPECIFIED_SOURCE('',' ',#5,.NOT_KNOWN.) ;
#20=SHAPE_DEFINITION_REPRESENTATION(#11,#19) ;
#12=(LENGTH_UNIT()NAMED_UNIT(*)SI_UNIT(.MILLI.,.METRE.)) ;
#13=(NAMED_UNIT(*)PLANE_ANGLE_UNIT()SI_UNIT($,.RADIAN.)) ;
#14=(NAMED_UNIT(*)SI_UNIT($,.STERADIAN.)SOLID_ANGLE_UNIT()) ;
#16=(GEOMETRIC_REPRESENTATION_CONTEXT(3)GLOBAL_UNCERTAINTY_ASSIGNED_CONTEXT((#15))GLOBAL_UNIT_ASSIGNED_CONTEXT((#12,#13,#14))REPRESENTATION_CONTEXT(' ',' ')) ;
ENDSEC;
END-ISO-10303-21;
